<?xml version="1.0" encoding="UTF-8" standalone="no"?>
<!-- Created with Inkscape (http://www.inkscape.org/) -->

<svg
   width="144"
   height="144"
   viewBox="0 0 38.099999 38.1"
   version="1.1"
   id="svg1"
   xml:space="preserve"
   xmlns="http://www.w3.org/2000/svg"
   xmlns:svg="http://www.w3.org/2000/svg"><defs
     id="defs1" /><rect
     style="fill:#ffffff;fill-opacity:1;stroke-width:1.56603"
     id="rect2"
     width="38.099998"
     height="38.099998"
     x="-8.8817842e-16"
     y="0"
     ry="6.5814576" /><g
     id="layer1"><g
       id="layer1-7"
       transform="matrix(0.22622263,0,0,0.22622263,-41.594788,-2.3744294)">
    <path
   style="fill:#121212;fill-opacity:1;stroke-width:0.892857"
   d="m 263.99733,150.17712 c -28.4524,-2.7443 -45.60318,-30.51623 -34.74841,-56.267437 5.5603,-13.190936 18.64529,-23.92547 33.1945,-27.231777 3.48472,-0.791903 3.75927,-0.711402 1.13007,0.331357 -23.76799,9.426572 -35.60319,35.190447 -26.30196,57.256377 6.76841,16.05716 25.48993,26.29499 44.26194,24.20455 l 1.2993,-0.14469 -1.18118,0.34731 c -4.99056,1.46741 -11.91744,2.05764 -17.65426,1.50431 z m 14.70132,-13.36436 c -21.07435,-1.09308 -36.76157,-15.58229 -39.00962,-36.03053 -0.42565,-3.871615 0.44915,-13.928332 1.28277,-14.74691 0.0261,-0.02557 0.058,1.671732 0.0709,3.771785 0.18538,30.029085 30.95168,48.522785 60.03916,36.089695 10.38701,-4.43981 18.88762,-12.57672 24.08886,-23.05824 1.74806,-3.522691 1.83419,-3.042429 0.28915,1.61229 -6.51627,19.63137 -26.43462,33.4162 -46.76125,32.36191 z m -58.86673,-5.68505 c -15.18597,-16.3053 -13.25141,-43.188662 4.33143,-60.191075 21.41228,-20.705446 57.14091,-19.264581 73.47541,2.963118 2.6006,3.538852 2.64112,3.884539 0.17938,1.530137 -22.99754,-21.994796 -63.32227,-13.93414 -78.37696,15.667058 -6.33036,12.447022 -6.2948,26.877202 0.0954,38.731462 0.57784,1.07192 1.01681,1.94894 0.97549,1.94894 -0.0413,0 -0.34741,-0.29234 -0.68019,-0.64964 z m 78.88352,-26.99788 c 3.39054,-8.460094 3.98131,-18.323753 1.59143,-26.570748 -10.10848,-34.88224 -57.59978,-42.590741 -83.29936,-13.520646 -0.89093,1.007777 -1.61987,1.775299 -1.61987,1.705605 0,-0.0697 0.56788,-1.058855 1.26195,-2.198135 10.52952,-17.283614 30.73262,-26.844623 50.77856,-24.030675 27.92824,3.920427 44.54063,29.65148 36.04318,55.827567 -1.11435,3.432705 -5.13374,11.393632 -5.75254,11.393632 -0.0264,0 0.42209,-1.17297 0.99665,-2.6066 z"
   id="path1" />
  </g></g></svg>
